<svg width="1111" height="288" viewBox="0 0 1111 288" fill="none" xmlns="http://www.w3.org/2000/svg">
<path fill-rule="evenodd" clip-rule="evenodd" d="M67.0394 168.35L42.9028 194.019C38.1178 199.108 30.3678 199.106 25.5862 194.02C20.8037 188.934 20.8052 180.69 25.5873 175.604L49.7239 149.935C53.3815 157.951 59.502 164.46 67.0394 168.35ZM49.7239 115.339L25.5873 89.6702C20.8052 84.5844 20.8037 76.3404 25.5862 71.2541C30.3678 66.169 38.1178 66.1664 42.9028 71.2552L67.0394 96.9245C59.502 100.814 53.3815 107.323 49.7239 115.339ZM99.5697 96.9245L123.706 71.2552C128.491 66.1664 136.241 66.169 141.023 71.2541C145.805 76.3404 145.804 84.5844 141.022 89.6702L116.885 115.339C113.228 107.323 107.107 100.814 99.5697 96.9245ZM116.885 149.935L141.022 175.604C145.804 180.69 145.805 188.934 141.023 194.02C136.241 199.106 128.491 199.108 123.706 194.019L99.5697 168.35C107.107 164.46 113.228 157.951 116.885 149.935Z" fill="#F3F3F4"/>
<path fill-rule="evenodd" clip-rule="evenodd" d="M83.3045 152.474C93.6057 152.474 101.956 143.593 101.956 132.637C101.956 121.682 93.6057 112.801 83.3045 112.801C73.0033 112.801 64.6526 121.682 64.6526 132.637C64.6526 143.593 73.0033 152.474 83.3045 152.474Z" fill="#4D76BA"/>
<g filter="url(#filter0_d_501_14)">
<path d="M215.28 169V99.1818H240.371V169H215.28ZM227.825 91.9091C224.431 91.9091 221.522 90.7879 219.098 88.5455C216.674 86.303 215.462 83.6061 215.462 80.4545C215.462 77.303 216.674 74.6061 219.098 72.3636C221.522 70.1212 224.431 69 227.825 69C231.25 69 234.159 70.1212 236.553 72.3636C238.977 74.6061 240.189 77.303 240.189 80.4545C240.189 83.6061 238.977 86.303 236.553 88.5455C234.159 90.7879 231.25 91.9091 227.825 91.9091ZM298.428 169.909C293.458 169.909 288.882 168.606 284.7 166C280.549 163.394 277.216 159.439 274.7 154.136C272.216 148.833 270.973 142.152 270.973 134.091C270.973 125.667 272.276 118.818 274.882 113.545C277.519 108.273 280.912 104.409 285.064 101.955C289.246 99.5 293.64 98.2727 298.246 98.2727C301.7 98.2727 304.731 98.8788 307.337 100.091C309.943 101.273 312.125 102.864 313.882 104.864C315.64 106.833 316.973 109 317.882 111.364H318.246V75.9091H343.337V169H318.428V157.545H317.882C316.912 159.909 315.519 162.03 313.7 163.909C311.912 165.758 309.731 167.227 307.155 168.318C304.609 169.379 301.7 169.909 298.428 169.909ZM307.7 150.636C310.003 150.636 311.973 149.97 313.609 148.636C315.276 147.273 316.549 145.364 317.428 142.909C318.337 140.424 318.791 137.485 318.791 134.091C318.791 130.636 318.337 127.682 317.428 125.227C316.549 122.742 315.276 120.848 313.609 119.545C311.973 118.212 310.003 117.545 307.7 117.545C305.397 117.545 303.428 118.212 301.791 119.545C300.185 120.848 298.943 122.742 298.064 125.227C297.216 127.682 296.791 130.636 296.791 134.091C296.791 137.545 297.216 140.515 298.064 143C298.943 145.455 300.185 147.348 301.791 148.682C303.428 149.985 305.397 150.636 307.7 150.636ZM409.109 170.273C401.655 170.273 395.231 168.848 389.837 166C384.473 163.121 380.337 159 377.428 153.636C374.549 148.242 373.109 141.788 373.109 134.273C373.109 127.061 374.564 120.758 377.473 115.364C380.382 109.97 384.488 105.773 389.791 102.773C395.094 99.7727 401.352 98.2727 408.564 98.2727C413.837 98.2727 418.609 99.0909 422.882 100.727C427.155 102.364 430.806 104.742 433.837 107.864C436.867 110.955 439.2 114.712 440.837 119.136C442.473 123.561 443.291 128.545 443.291 134.091V139.909H380.928V126.091H420.2C420.17 124.091 419.655 122.333 418.655 120.818C417.685 119.273 416.367 118.076 414.7 117.227C413.064 116.348 411.2 115.909 409.109 115.909C407.079 115.909 405.216 116.348 403.519 117.227C401.822 118.076 400.458 119.258 399.428 120.773C398.428 122.288 397.897 124.061 397.837 126.091V141C397.837 143.242 398.306 145.242 399.246 147C400.185 148.758 401.534 150.136 403.291 151.136C405.049 152.136 407.17 152.636 409.655 152.636C411.382 152.636 412.958 152.394 414.382 151.909C415.837 151.424 417.079 150.727 418.109 149.818C419.14 148.879 419.897 147.758 420.382 146.455H443.291C442.503 151.303 440.64 155.515 437.7 159.091C434.761 162.636 430.867 165.394 426.019 167.364C421.2 169.303 415.564 170.273 409.109 170.273ZM492.984 170.091C488.53 170.091 484.591 169.364 481.166 167.909C477.772 166.424 475.106 164.182 473.166 161.182C471.227 158.182 470.257 154.364 470.257 149.727C470.257 145.909 470.909 142.652 472.212 139.955C473.515 137.227 475.333 135 477.666 133.273C480 131.545 482.712 130.227 485.803 129.318C488.924 128.409 492.287 127.818 495.894 127.545C499.803 127.242 502.939 126.879 505.303 126.455C507.697 126 509.424 125.379 510.484 124.591C511.545 123.773 512.075 122.697 512.075 121.364V121.182C512.075 119.364 511.378 117.97 509.984 117C508.591 116.03 506.803 115.545 504.621 115.545C502.227 115.545 500.272 116.076 498.757 117.136C497.272 118.167 496.378 119.758 496.075 121.909H472.984C473.287 117.667 474.636 113.758 477.03 110.182C479.454 106.576 482.984 103.697 487.621 101.545C492.257 99.3636 498.045 98.2727 504.984 98.2727C509.984 98.2727 514.469 98.8636 518.439 100.045C522.409 101.197 525.787 102.818 528.575 104.909C531.363 106.97 533.484 109.394 534.939 112.182C536.424 114.939 537.166 117.939 537.166 121.182V169H513.712V159.182H513.166C511.772 161.788 510.075 163.894 508.075 165.5C506.106 167.106 503.848 168.273 501.303 169C498.787 169.727 496.015 170.091 492.984 170.091ZM501.166 154.273C503.075 154.273 504.863 153.879 506.53 153.091C508.227 152.303 509.606 151.167 510.666 149.682C511.727 148.197 512.257 146.394 512.257 144.273V138.455C511.591 138.727 510.878 138.985 510.121 139.227C509.394 139.47 508.606 139.697 507.757 139.909C506.939 140.121 506.06 140.318 505.121 140.5C504.212 140.682 503.257 140.848 502.257 141C500.318 141.303 498.727 141.803 497.484 142.5C496.272 143.167 495.363 144 494.757 145C494.181 145.97 493.894 147.061 493.894 148.273C493.894 150.212 494.575 151.697 495.939 152.727C497.303 153.758 499.045 154.273 501.166 154.273ZM602.609 170.273C595.155 170.273 588.731 168.848 583.337 166C577.973 163.121 573.837 159 570.928 153.636C568.049 148.242 566.609 141.788 566.609 134.273C566.609 127.061 568.064 120.758 570.973 115.364C573.882 109.97 577.988 105.773 583.291 102.773C588.594 99.7727 594.852 98.2727 602.064 98.2727C607.337 98.2727 612.109 99.0909 616.382 100.727C620.655 102.364 624.306 104.742 627.337 107.864C630.367 110.955 632.7 114.712 634.337 119.136C635.973 123.561 636.791 128.545 636.791 134.091V139.909H574.428V126.091H613.7C613.67 124.091 613.155 122.333 612.155 120.818C611.185 119.273 609.867 118.076 608.2 117.227C606.564 116.348 604.7 115.909 602.609 115.909C600.579 115.909 598.716 116.348 597.019 117.227C595.322 118.076 593.958 119.258 592.928 120.773C591.928 122.288 591.397 124.061 591.337 126.091V141C591.337 143.242 591.806 145.242 592.746 147C593.685 148.758 595.034 150.136 596.791 151.136C598.549 152.136 600.67 152.636 603.155 152.636C604.882 152.636 606.458 152.394 607.882 151.909C609.337 151.424 610.579 150.727 611.609 149.818C612.64 148.879 613.397 147.758 613.882 146.455H636.791C636.003 151.303 634.14 155.515 631.2 159.091C628.261 162.636 624.367 165.394 619.519 167.364C614.7 169.303 609.064 170.273 602.609 170.273ZM692.303 169.909C687.333 169.909 682.757 168.606 678.575 166C674.424 163.394 671.091 159.439 668.575 154.136C666.091 148.833 664.848 142.152 664.848 134.091C664.848 125.667 666.151 118.818 668.757 113.545C671.394 108.273 674.787 104.409 678.939 101.955C683.121 99.5 687.515 98.2727 692.121 98.2727C695.575 98.2727 698.606 98.8788 701.212 100.091C703.818 101.273 706 102.864 707.757 104.864C709.515 106.833 710.848 109 711.757 111.364H712.121V75.9091H737.212V169H712.303V157.545H711.757C710.787 159.909 709.394 162.03 707.575 163.909C705.787 165.758 703.606 167.227 701.03 168.318C698.484 169.379 695.575 169.909 692.303 169.909ZM701.575 150.636C703.878 150.636 705.848 149.97 707.484 148.636C709.151 147.273 710.424 145.364 711.303 142.909C712.212 140.424 712.666 137.485 712.666 134.091C712.666 130.636 712.212 127.682 711.303 125.227C710.424 122.742 709.151 120.848 707.484 119.545C705.848 118.212 703.878 117.545 701.575 117.545C699.272 117.545 697.303 118.212 695.666 119.545C694.06 120.848 692.818 122.742 691.939 125.227C691.091 127.682 690.666 130.636 690.666 134.091C690.666 137.545 691.091 140.515 691.939 143C692.818 145.455 694.06 147.348 695.666 148.682C697.303 149.985 699.272 150.636 701.575 150.636ZM769.53 169V99.1818H794.621V169H769.53ZM782.075 91.9091C778.681 91.9091 775.772 90.7879 773.348 88.5455C770.924 86.303 769.712 83.6061 769.712 80.4545C769.712 77.303 770.924 74.6061 773.348 72.3636C775.772 70.1212 778.681 69 782.075 69C785.5 69 788.409 70.1212 790.803 72.3636C793.227 74.6061 794.439 77.303 794.439 80.4545C794.439 83.6061 793.227 86.303 790.803 88.5455C788.409 90.7879 785.5 91.9091 782.075 91.9091ZM869.041 99.1818V117.364H823.041V99.1818H869.041ZM831.95 82.4545H857.041V146.545C857.041 147.515 857.208 148.333 857.541 149C857.875 149.636 858.39 150.121 859.087 150.455C859.784 150.758 860.678 150.909 861.769 150.909C862.526 150.909 863.405 150.818 864.405 150.636C865.435 150.455 866.193 150.303 866.678 150.182L870.314 167.818C869.193 168.152 867.587 168.561 865.496 169.045C863.435 169.53 860.981 169.848 858.132 170C852.375 170.303 847.541 169.712 843.632 168.227C839.723 166.712 836.784 164.333 834.814 161.091C832.844 157.848 831.89 153.788 831.95 148.909V82.4545ZM932.166 170.273C924.591 170.273 918.106 168.773 912.712 165.773C907.318 162.742 903.181 158.53 900.303 153.136C897.424 147.712 895.984 141.424 895.984 134.273C895.984 127.121 897.424 120.848 900.303 115.455C903.181 110.03 907.318 105.818 912.712 102.818C918.106 99.7879 924.591 98.2727 932.166 98.2727C939.742 98.2727 946.227 99.7879 951.621 102.818C957.015 105.818 961.151 110.03 964.03 115.455C966.909 120.848 968.348 127.121 968.348 134.273C968.348 141.424 966.909 147.712 964.03 153.136C961.151 158.53 957.015 162.742 951.621 165.773C946.227 168.773 939.742 170.273 932.166 170.273ZM932.348 151.727C934.469 151.727 936.303 151.015 937.848 149.591C939.394 148.167 940.591 146.136 941.439 143.5C942.287 140.864 942.712 137.727 942.712 134.091C942.712 130.424 942.287 127.288 941.439 124.682C940.591 122.045 939.394 120.015 937.848 118.591C936.303 117.167 934.469 116.455 932.348 116.455C930.106 116.455 928.181 117.167 926.575 118.591C924.969 120.015 923.742 122.045 922.894 124.682C922.045 127.288 921.621 130.424 921.621 134.091C921.621 137.727 922.045 140.864 922.894 143.5C923.742 146.136 924.969 148.167 926.575 149.591C928.181 151.015 930.106 151.727 932.348 151.727ZM998.53 169V99.1818H1022.89V112.455H1023.62C1024.89 107.545 1026.91 103.955 1029.67 101.682C1032.45 99.4091 1035.71 98.2727 1039.44 98.2727C1040.53 98.2727 1041.61 98.3636 1042.67 98.5455C1043.76 98.697 1044.8 98.9242 1045.8 99.2273V120.636C1044.56 120.212 1043.03 119.894 1041.21 119.682C1039.39 119.47 1037.83 119.364 1036.53 119.364C1034.08 119.364 1031.86 119.924 1029.89 121.045C1027.95 122.136 1026.42 123.682 1025.3 125.682C1024.18 127.652 1023.62 129.97 1023.62 132.636V169H998.53Z" fill="#F3F3F4"/>
</g>
<defs>
<filter id="filter0_d_501_14" x="211.28" y="69" width="838.523" height="109.455" filterUnits="userSpaceOnUse" color-interpolation-filters="sRGB">
<feFlood flood-opacity="0" result="BackgroundImageFix"/>
<feColorMatrix in="SourceAlpha" type="matrix" values="0 0 0 0 0 0 0 0 0 0 0 0 0 0 0 0 0 0 127 0" result="hardAlpha"/>
<feOffset dy="4"/>
<feGaussianBlur stdDeviation="2"/>
<feComposite in2="hardAlpha" operator="out"/>
<feColorMatrix type="matrix" values="0 0 0 0 0 0 0 0 0 0 0 0 0 0 0 0 0 0 0.25 0"/>
<feBlend mode="normal" in2="BackgroundImageFix" result="effect1_dropShadow_501_14"/>
<feBlend mode="normal" in="SourceGraphic" in2="effect1_dropShadow_501_14" result="shape"/>
</filter>
</defs>
</svg>
